<?xml version="1.0" encoding="utf-8"?>
<!-- Generator: Adobe Illustrator 17.0.0, SVG Export Plug-In . SVG Version: 6.00 Build 0)  -->
<!DOCTYPE svg PUBLIC "-//W3C//DTD SVG 1.1//EN" "http://www.w3.org/Graphics/SVG/1.1/DTD/svg11.dtd">
<svg version="1.1" id="Layer_1" xmlns="http://www.w3.org/2000/svg" xmlns:xlink="http://www.w3.org/1999/xlink" x="0px" y="0px"
	 width="85.04px" height="56.69px" viewBox="0 0 85.04 56.69" enable-background="new 0 0 85.04 56.69" xml:space="preserve">
<g>
	<circle fill="#F15C27" cx="24.59" cy="36.016" r="5.971"/>
	<circle fill="#F15C27" cx="61.684" cy="36.016" r="5.971"/>
	<path fill="#F15C27" d="M76.542,13.336C45.557,16.919,44.608,27.774,43.238,31.99C41.341,14.706,11.96,13.756,9.302,13.23
		c-2.644-0.523-2.002,1.054-2.002,1.054l2.886,13.831c-1.27,2.336-1.908,4.951-1.908,7.845c0,4.567,1.604,8.438,4.81,11.613
		c3.207,3.175,7.125,4.763,11.754,4.763c4.433,0,8.206-1.472,11.333-4.383c1.348,1.843,3.871,5.189,5.798,7.117
		c1.722,1.723,2.951,0,2.951,0l5.427-7.15c3.135,2.933,6.92,4.415,11.37,4.415c4.63,0,8.548-1.588,11.754-4.763
		c3.207-3.175,4.81-7.046,4.81-11.613c0-3.006-0.698-5.706-2.069-8.111c0.711-3.511,2.435-12.089,2.645-13.776
		C79.009,12.876,77.701,13.125,76.542,13.336z M32.044,43.374c-1.955,1.971-4.356,2.956-7.202,2.956
		c-2.847,0-5.247-0.985-7.203-2.956c-1.955-1.971-2.932-4.442-2.932-7.414c0-2.971,0.977-5.458,2.932-7.46
		c1.956-2.002,4.356-3.003,7.203-3.003c2.846,0,5.247,1.001,7.202,3.003c1.955,2.002,2.933,4.489,2.933,7.46
		C34.976,38.932,33.999,41.404,32.044,43.374z M68.923,43.374c-1.955,1.971-4.356,2.956-7.202,2.956
		c-2.847,0-5.247-0.985-7.203-2.956c-1.955-1.971-2.932-4.442-2.932-7.414c0-2.971,0.977-5.458,2.932-7.46
		c1.956-2.002,4.356-3.003,7.203-3.003c2.846,0,5.247,1.001,7.202,3.003c1.955,2.002,2.933,4.489,2.933,7.46
		C71.856,38.932,70.878,41.404,68.923,43.374z"/>
	<path fill="#F15C27" d="M80.737,6.018L45.794,1.082c-1.132-0.25-2.39-0.356-4.171,0L3.709,6.018c-4.508,0.689-4.192,3.064-1,3.952
		c-0.945,6.915-1.63,23.872-1.63,23.872c0,1.779,1.08,3.234,2.4,3.234s2.4-1.455,2.4-3.234c0,0-0.665-16.485-1.59-23.578
		l37.335,4.86c1.812,0.265,2.796,0.25,4.171,0l34.942-4.935C85.949,9.532,86.171,6.713,80.737,6.018z"/>
</g>
</svg>
