<?xml version="1.0" encoding="utf-8"?>
<!-- Generator: Adobe Illustrator 17.0.0, SVG Export Plug-In . SVG Version: 6.00 Build 0)  -->
<!DOCTYPE svg PUBLIC "-//W3C//DTD SVG 1.1//EN" "http://www.w3.org/Graphics/SVG/1.1/DTD/svg11.dtd">
<svg version="1.1" id="Layer_1" xmlns="http://www.w3.org/2000/svg" xmlns:xlink="http://www.w3.org/1999/xlink" x="0px" y="0px"
	 width="263.62px" height="39.69px" viewBox="0 0 263.62 39.69" enable-background="new 0 0 263.62 39.69" xml:space="preserve">
<g>
	<path fill="#1A1A1A" d="M7.48,1.307c0.589-0.138,1.152-0.225,1.69-0.26c0.537-0.034,1.048-0.052,1.534-0.052
		c1.04,0,2.08,0.104,3.12,0.312l9.204,23.764l4.108-23.764c1.248-0.208,2.478-0.312,3.692-0.312c0.554,0,1.092,0.018,1.612,0.052
		c0.52,0.035,1.04,0.122,1.56,0.26l-6.604,37.388c-1.214,0.208-2.271,0.312-3.172,0.312c-0.971,0-1.994-0.104-3.068-0.312
		L11.9,14.983L7.792,38.695c-0.59,0.104-1.188,0.182-1.794,0.234c-0.607,0.052-1.205,0.078-1.794,0.078
		c-1.11,0-2.202-0.104-3.276-0.312L7.48,1.307z"/>
	<path fill="#1A1A1A" d="M42.683,28.503c0.208,1.664,0.762,2.904,1.664,3.718c0.901,0.815,2.218,1.222,3.952,1.222
		c1.386,0,2.608-0.147,3.666-0.442c1.057-0.294,2.175-0.684,3.354-1.17c0.554,0.694,0.927,1.534,1.118,2.522
		c0.19,0.988,0.286,2.037,0.286,3.146c-0.59,0.278-1.274,0.529-2.054,0.754c-0.78,0.226-1.586,0.416-2.418,0.572
		c-0.832,0.156-1.664,0.277-2.496,0.364c-0.832,0.086-1.578,0.13-2.236,0.13c-2.115,0-3.926-0.26-5.434-0.78
		c-1.508-0.52-2.756-1.256-3.744-2.21c-0.988-0.953-1.716-2.114-2.184-3.484c-0.468-1.369-0.702-2.886-0.702-4.55
		c0-2.114,0.364-4.194,1.092-6.24c0.728-2.045,1.759-3.874,3.094-5.486c1.334-1.612,2.964-2.912,4.888-3.9
		c1.924-0.988,4.082-1.482,6.474-1.482c1.144,0,2.21,0.139,3.198,0.416c0.988,0.278,1.846,0.702,2.574,1.274
		c0.728,0.572,1.3,1.274,1.716,2.106s0.624,1.803,0.624,2.912c0,1.56-0.364,2.912-1.092,4.056c-0.728,1.144-1.699,2.115-2.912,2.912
		c-1.214,0.798-2.592,1.448-4.134,1.95c-1.543,0.503-3.146,0.875-4.81,1.118L42.683,28.503z M45.647,23.199
		c1.317-0.208,2.392-0.476,3.224-0.806c0.832-0.329,1.49-0.693,1.976-1.092c0.485-0.398,0.814-0.806,0.988-1.222
		c0.173-0.416,0.26-0.832,0.26-1.248c0-0.658-0.217-1.196-0.65-1.612c-0.434-0.416-1.014-0.624-1.742-0.624
		c-0.902,0-1.725,0.2-2.47,0.598c-0.746,0.399-1.396,0.928-1.95,1.586c-0.555,0.659-1.032,1.413-1.43,2.262
		c-0.399,0.85-0.702,1.708-0.91,2.574L45.647,23.199z"/>
	<path fill="#1A1A1A" d="M66.81,24.863l-3.016-13.052c1.178-0.208,2.426-0.312,3.744-0.312c0.658,0,1.239,0.026,1.742,0.078
		c0.502,0.052,1.083,0.13,1.742,0.234l2.808,13.052l-5.408,9.204c-0.59,1.006-1.014,1.829-1.274,2.47
		c-0.26,0.642-0.425,1.344-0.494,2.106c-0.936,0.173-1.742,0.268-2.418,0.286c-0.676,0.017-1.205,0.026-1.586,0.026
		c-0.486,0-0.971-0.009-1.456-0.026c-0.486-0.018-1.179-0.096-2.08-0.234c0.069-0.797,0.242-1.56,0.52-2.288
		c0.277-0.728,0.728-1.577,1.352-2.548L66.81,24.863z M74.194,24.863l4.836-8.164c0.589-0.97,0.953-1.863,1.092-2.678
		c0.138-0.814,0.225-1.568,0.26-2.262c0.936-0.173,1.69-0.26,2.262-0.26c0.572,0,1.066,0,1.482,0c0.554,0,1.1,0.018,1.638,0.052
		c0.537,0.035,1.118,0.104,1.742,0.208c0,0.659-0.078,1.474-0.234,2.444c-0.156,0.971-0.616,2.046-1.378,3.224l-4.68,7.124
		l3.276,14.144c-1.422,0.208-2.722,0.312-3.9,0.312c-1.248,0-2.462-0.104-3.64-0.312L74.194,24.863z"/>
	<path fill="#1A1A1A" d="M93.798,17.427h-4.004c0-0.936,0.069-1.854,0.208-2.756c0.138-0.901,0.398-1.854,0.78-2.86h4.004
		l0.312-1.56c0.173-0.866,0.277-1.69,0.312-2.47c0.034-0.78,0.052-1.43,0.052-1.95c0.901-0.589,2.028-1.005,3.38-1.248
		c1.352-0.242,2.6-0.364,3.744-0.364c0.173,0.52,0.26,1.179,0.26,1.976c0,0.555-0.044,1.153-0.13,1.794
		c-0.087,0.642-0.2,1.344-0.338,2.106l-0.312,1.716h6.448c0,1.04-0.087,1.994-0.26,2.86c-0.174,0.867-0.416,1.786-0.728,2.756
		h-6.448l-1.82,10.244c-0.07,0.486-0.13,0.936-0.182,1.352c-0.052,0.416-0.078,0.815-0.078,1.196c0,0.902,0.208,1.612,0.624,2.132
		c0.416,0.52,1.196,0.78,2.34,0.78c0.589,0,1.109-0.043,1.56-0.13c0.45-0.086,0.866-0.182,1.248-0.286
		c0.45,1.006,0.676,2.323,0.676,3.952c0,0.278,0,0.555,0,0.832c0,0.278-0.018,0.555-0.052,0.832
		c-1.491,0.45-3.276,0.676-5.356,0.676c-2.912,0-5.07-0.537-6.474-1.612c-1.404-1.074-2.106-2.877-2.106-5.408
		c0-0.52,0.034-1.057,0.104-1.612c0.069-0.554,0.156-1.161,0.26-1.82L93.798,17.427z"/>
	<path fill="#1A1A1A" d="M109.554,31.051c1.317,0.486,2.66,0.902,4.03,1.248c1.369,0.347,2.695,0.52,3.978,0.52
		c1.074,0,2.071-0.121,2.99-0.364c0.918-0.242,1.716-0.606,2.392-1.092c0.676-0.485,1.204-1.074,1.586-1.768
		c0.381-0.693,0.572-1.508,0.572-2.444c0-0.693-0.156-1.3-0.468-1.82c-0.312-0.52-0.711-0.988-1.196-1.404
		c-0.486-0.416-1.058-0.806-1.716-1.17c-0.659-0.364-1.318-0.754-1.976-1.17c-2.219-1.317-3.978-2.678-5.278-4.082
		c-1.3-1.404-1.95-3.059-1.95-4.966c0-1.872,0.329-3.544,0.988-5.018c0.658-1.473,1.594-2.712,2.808-3.718
		c1.213-1.005,2.678-1.776,4.394-2.314c1.716-0.537,3.648-0.806,5.798-0.806c1.906,0,3.553,0.139,4.94,0.416
		c1.386,0.278,2.842,0.711,4.368,1.3c-0.139,0.936-0.382,1.924-0.728,2.964c-0.347,1.04-0.832,2.063-1.456,3.068
		c-1.006-0.485-2.037-0.884-3.094-1.196c-1.058-0.312-2.436-0.468-4.134-0.468c-0.624,0-1.292,0.052-2.002,0.156
		c-0.711,0.104-1.352,0.304-1.924,0.598c-0.572,0.295-1.049,0.702-1.43,1.222c-0.382,0.52-0.572,1.196-0.572,2.028
		c0,1.179,0.424,2.15,1.274,2.912c0.849,0.763,1.932,1.526,3.25,2.288c1.178,0.659,2.27,1.318,3.276,1.976
		c1.005,0.659,1.889,1.37,2.652,2.132c0.762,0.763,1.36,1.621,1.794,2.574c0.433,0.954,0.65,2.054,0.65,3.302
		c0,1.768-0.321,3.467-0.962,5.096c-0.642,1.63-1.63,3.051-2.964,4.264c-1.335,1.214-3.025,2.184-5.07,2.912
		c-2.046,0.728-4.472,1.092-7.28,1.092c-3.259,0-6.466-0.607-9.62-1.82c0.138-1.04,0.39-2.088,0.754-3.146
		C108.592,33.296,109.034,32.195,109.554,31.051z"/>
	<path fill="#1A1A1A" d="M154.897,32.299c0.381,0.624,0.693,1.37,0.936,2.236c0.242,0.867,0.364,2.011,0.364,3.432
		c-1.109,0.486-2.288,0.832-3.536,1.04s-2.617,0.312-4.107,0.312c-3.952,0-6.848-0.962-8.685-2.886
		c-1.837-1.924-2.756-4.567-2.756-7.93c0-2.045,0.338-4.099,1.014-6.162c0.676-2.062,1.672-3.917,2.99-5.564
		c1.317-1.646,2.938-2.99,4.862-4.03c1.924-1.04,4.151-1.56,6.682-1.56c1.179,0,2.322,0.087,3.433,0.26
		c1.108,0.174,2.166,0.451,3.172,0.832c-0.035,0.902-0.191,1.864-0.468,2.886c-0.278,1.023-0.711,2.002-1.301,2.938
		c-0.763-0.312-1.517-0.554-2.262-0.728c-0.746-0.173-1.569-0.26-2.47-0.26c-1.353,0-2.531,0.304-3.536,0.91
		c-1.006,0.607-1.846,1.404-2.522,2.392c-0.676,0.988-1.179,2.124-1.508,3.406c-0.33,1.283-0.494,2.618-0.494,4.004
		c0,1.907,0.485,3.311,1.456,4.212c0.971,0.902,2.201,1.352,3.692,1.352c0.762,0,1.516-0.069,2.262-0.208
		C152.86,33.045,153.787,32.75,154.897,32.299z"/>
	<path fill="#1A1A1A" d="M165.817,10.771c0.624-3.64,0.936-6.396,0.936-8.268c0-0.381-0.009-0.702-0.025-0.962
		c-0.019-0.26-0.044-0.546-0.078-0.858c0.589-0.104,1.265-0.182,2.028-0.234c0.762-0.052,1.421-0.078,1.976-0.078
		c1.005,0,2.114,0.104,3.328,0.312c0.173,0.52,0.26,1.179,0.26,1.976c0,1.526-0.208,3.38-0.624,5.564l-1.352,7.28
		c0.9-1.213,2.097-2.227,3.588-3.042c1.49-0.814,3.067-1.222,4.731-1.222c2.08,0,3.7,0.529,4.862,1.586
		c1.161,1.058,1.742,2.817,1.742,5.278c0,0.52-0.035,1.075-0.104,1.664c-0.069,0.59-0.155,1.214-0.26,1.872l-3.016,17.056
		c-1.318,0.208-2.583,0.312-3.796,0.312c-1.214,0-2.41-0.104-3.588-0.312l2.911-16.484c0.139-0.693,0.208-1.352,0.208-1.976
		c0-1.04-0.226-1.768-0.676-2.184c-0.451-0.416-1.092-0.624-1.924-0.624c-0.486,0-1.032,0.122-1.638,0.364
		c-0.607,0.243-1.223,0.754-1.847,1.534c-0.624,0.78-1.23,1.881-1.819,3.302c-0.59,1.422-1.093,3.294-1.509,5.616l-1.924,10.452
		c-0.658,0.104-1.309,0.173-1.949,0.208c-0.643,0.034-1.24,0.052-1.795,0.052c-0.59,0-1.17-0.018-1.741-0.052
		c-0.572-0.035-1.188-0.104-1.847-0.208L165.817,10.771z"/>
	<path fill="#1A1A1A" d="M201.853,39.319c-3.571,0-6.197-0.936-7.878-2.808c-1.682-1.872-2.522-4.437-2.522-7.696
		c0-2.08,0.312-4.168,0.937-6.266c0.624-2.097,1.56-3.986,2.808-5.668c1.248-1.681,2.816-3.05,4.706-4.108
		c1.89-1.057,4.1-1.586,6.63-1.586c3.605,0,6.248,0.954,7.931,2.86c1.681,1.907,2.521,4.49,2.521,7.748
		c0,2.15-0.304,4.264-0.91,6.344s-1.534,3.952-2.781,5.616c-1.248,1.664-2.826,3.008-4.732,4.03
		C206.654,38.807,204.419,39.319,201.853,39.319z M202.529,33.703c1.317,0,2.427-0.416,3.328-1.248
		c0.901-0.832,1.638-1.863,2.21-3.094c0.572-1.23,0.979-2.53,1.222-3.9c0.242-1.369,0.364-2.608,0.364-3.718
		c0-3.189-1.3-4.784-3.899-4.784c-1.318,0-2.41,0.434-3.276,1.3c-0.867,0.867-1.578,1.924-2.132,3.172
		c-0.556,1.248-0.945,2.566-1.17,3.952c-0.227,1.387-0.338,2.618-0.338,3.692C198.838,32.161,200.067,33.703,202.529,33.703z"/>
	<path fill="#1A1A1A" d="M230.869,39.319c-3.571,0-6.197-0.936-7.878-2.808c-1.682-1.872-2.522-4.437-2.522-7.696
		c0-2.08,0.312-4.168,0.937-6.266c0.624-2.097,1.56-3.986,2.808-5.668c1.248-1.681,2.816-3.05,4.706-4.108
		c1.89-1.057,4.1-1.586,6.63-1.586c3.605,0,6.248,0.954,7.931,2.86c1.681,1.907,2.521,4.49,2.521,7.748
		c0,2.15-0.304,4.264-0.91,6.344s-1.534,3.952-2.781,5.616c-1.248,1.664-2.826,3.008-4.732,4.03
		C235.67,38.807,233.435,39.319,230.869,39.319z M231.545,33.703c1.317,0,2.427-0.416,3.328-1.248
		c0.901-0.832,1.638-1.863,2.21-3.094c0.572-1.23,0.979-2.53,1.222-3.9c0.242-1.369,0.364-2.608,0.364-3.718
		c0-3.189-1.3-4.784-3.899-4.784c-1.318,0-2.41,0.434-3.276,1.3c-0.867,0.867-1.578,1.924-2.132,3.172
		c-0.556,1.248-0.945,2.566-1.17,3.952c-0.227,1.387-0.338,2.618-0.338,3.692C227.853,32.161,229.083,33.703,231.545,33.703z"/>
	<path fill="#1A1A1A" d="M254.009,10.771c0.381-1.837,0.65-3.44,0.806-4.81c0.156-1.369,0.234-2.522,0.234-3.458
		c0-0.381-0.009-0.702-0.026-0.962c-0.018-0.26-0.044-0.546-0.078-0.858c0.59-0.104,1.266-0.182,2.028-0.234
		c0.762-0.052,1.421-0.078,1.976-0.078c1.006,0,2.114,0.104,3.328,0.312c0.174,0.52,0.261,1.179,0.261,1.976
		c0,0.728-0.07,1.56-0.208,2.496c-0.14,0.936-0.312,1.959-0.521,3.068l-4.004,20.904c-0.104,0.59-0.156,1.075-0.156,1.456
		c0,0.555,0.078,0.988,0.234,1.3c0.156,0.312,0.354,0.555,0.598,0.728c0.242,0.174,0.521,0.286,0.832,0.338
		c0.312,0.052,0.624,0.078,0.937,0.078c0.138,0,0.397-0.026,0.779-0.078c0.382-0.052,0.729-0.13,1.04-0.234
		c0.174,0.59,0.32,1.231,0.442,1.924c0.121,0.694,0.182,1.404,0.182,2.132c0,0.278-0.009,0.538-0.025,0.78
		c-0.019,0.243-0.044,0.503-0.078,0.78c-0.521,0.208-1.196,0.372-2.028,0.494c-0.832,0.121-1.751,0.182-2.756,0.182
		c-2.357,0-4.212-0.58-5.564-1.742c-1.352-1.161-2.027-2.99-2.027-5.486c0-0.485,0.034-0.996,0.104-1.534
		c0.069-0.537,0.156-1.1,0.261-1.69L254.009,10.771z"/>
</g>
</svg>
